<?xml version="1.0" encoding="UTF-8"?>
<svg xmlns="http://www.w3.org/2000/svg" viewBox="0 0 1008 560">
<defs><style type="text/css"><![CDATA[
.room-rect { stroke: #333; stroke-width: 1; }
.room-label { font-family: sans-serif; font-size: 11px; text-anchor: middle; dominant-baseline: middle; font-weight: 500; }
]]></style></defs>
<rect width="1008" height="560" fill="#e8e8e8"/>
<g id="rooms">
	<path class="room-rect" d="M 28 56 L 112 56 L 112 196 L 28 196 Z" fill="#d6c89e"/>
	<path class="room-rect" d="M 0 196 L 112 196 L 112 364 L 0 364 Z" fill="#1f3a4d"/>
	<path class="room-rect" d="M 28 364 L 112 364 L 112 504 L 28 504 Z" fill="#d6c89e"/>
	<path class="room-rect" d="M 112 0 L 868 0 L 868 56 L 112 56 Z" fill="#f0a23a"/>
	<path class="room-rect" d="M 112 56 L 280 56 L 280 140 L 112 140 Z" fill="#cfe2ec"/>
	<path class="room-rect" d="M 280 56 L 448 56 L 448 140 L 280 140 Z" fill="#cfe2ec"/>
	<path class="room-rect" d="M 448 56 L 588 56 L 588 140 L 448 140 Z" fill="#cfe2ec"/>
	<path class="room-rect" d="M 588 56 L 728 56 L 728 140 L 588 140 Z" fill="#cfe2ec"/>
	<path class="room-rect" d="M 728 56 L 868 56 L 868 140 L 728 140 Z" fill="#a8c8d9"/>
	<path class="room-rect" d="M 112 140 L 868 140 L 868 168 L 112 168 Z" fill="#ece1c2"/>
	<path class="room-rect" d="M 112 168 L 224 168 L 224 252 L 112 252 Z" fill="#9bd2b1"/>
	<path class="room-rect" d="M 224 168 L 336 168 L 336 252 L 224 252 Z" fill="#e89a6a"/>
	<path class="room-rect" d="M 336 168 L 504 168 L 504 252 L 336 252 Z" fill="#f4ba6c"/>
	<path class="room-rect" d="M 504 168 L 588 168 L 588 252 L 504 252 Z" fill="#9aa085"/>
	<path class="room-rect" d="M 588 168 L 728 168 L 728 252 L 588 252 Z" fill="#e89a6a"/>
	<path class="room-rect" d="M 728 168 L 868 168 L 868 252 L 728 252 Z" fill="#e89a6a"/>
	<path class="room-rect" d="M 112 252 L 868 252 L 868 308 L 112 308 Z" fill="#f3d889"/>
	<path class="room-rect" d="M 112 308 L 224 308 L 224 392 L 112 392 Z" fill="#f08a8a"/>
	<path class="room-rect" d="M 224 308 L 308 308 L 308 392 L 224 392 Z" fill="#b6a0d0"/>
	<path class="room-rect" d="M 308 308 L 420 308 L 420 392 L 308 392 Z" fill="#9bd2b1"/>
	<path class="room-rect" d="M 420 308 L 588 308 L 588 392 L 420 392 Z" fill="#e89a6a"/>
	<path class="room-rect" d="M 588 308 L 728 308 L 728 392 L 588 392 Z" fill="#e89a6a"/>
	<path class="room-rect" d="M 728 308 L 868 308 L 868 392 L 728 392 Z" fill="#e89a6a"/>
	<path class="room-rect" d="M 112 392 L 868 392 L 868 420 L 112 420 Z" fill="#ece1c2"/>
	<path class="room-rect" d="M 112 420 L 280 420 L 280 504 L 112 504 Z" fill="#cfe2ec"/>
	<path class="room-rect" d="M 280 420 L 448 420 L 448 504 L 280 504 Z" fill="#cfe2ec"/>
	<path class="room-rect" d="M 448 420 L 588 420 L 588 504 L 448 504 Z" fill="#cfe2ec"/>
	<path class="room-rect" d="M 588 420 L 728 420 L 728 504 L 588 504 Z" fill="#cfe2ec"/>
	<path class="room-rect" d="M 728 420 L 868 420 L 868 504 L 728 504 Z" fill="#a8c8d9"/>
	<path class="room-rect" d="M 112 504 L 868 504 L 868 560 L 112 560 Z" fill="#f0a23a"/>
	<path class="room-rect" d="M 868 0 L 1008 0 L 1008 56 L 868 56 Z" fill="#e89a6a"/>
	<path class="room-rect" d="M 868 56 L 1008 56 L 1008 168 L 868 168 Z" fill="#b5b39a"/>
	<path class="room-rect" d="M 868 168 L 1008 168 L 1008 252 L 868 252 Z" fill="#9aa085"/>
	<path class="room-rect" d="M 868 252 L 1008 252 L 1008 308 L 868 308 Z" fill="#1f3a4d"/>
	<path class="room-rect" d="M 868 308 L 1008 308 L 1008 420 L 868 420 Z" fill="#9aa085"/>
	<path class="room-rect" d="M 868 420 L 1008 420 L 1008 504 L 868 504 Z" fill="#7c8c99"/>
	<path class="room-rect" d="M 868 504 L 1008 504 L 1008 560 L 868 560 Z" fill="#7c8c99"/>
</g>
<g id="labels">
	<text class="room-label" x="70" y="126" fill="#3a2e10">Fwd Promenade (P)</text>
	<text class="room-label" x="56" y="280" fill="#f3e6c8">Bridge</text>
	<text class="room-label" x="70" y="434" fill="#3a2e10">Fwd Promenade (S)</text>
	<text class="room-label" x="490" y="28" fill="#3a1c00">Lifeboat Stations (P)</text>
	<text class="room-label" x="196" y="98" fill="#1a3a4d">Cabins 101-118 (P)</text>
	<text class="room-label" x="364" y="98" fill="#1a3a4d">Cabins 119-136 (P)</text>
	<text class="room-label" x="518" y="98" fill="#1a3a4d">Cabins 137-151 (P)</text>
	<text class="room-label" x="658" y="98" fill="#1a3a4d">Cabins 152-166 (P)</text>
	<text class="room-label" x="798" y="98" fill="#1a3a4d">Owner's Suites (P)</text>
	<text class="room-label" x="490" y="154" fill="#5a4a30">Port Corridor</text>
	<text class="room-label" x="168" y="210" fill="#1a4d2e">Spa &amp; Hammam</text>
	<text class="room-label" x="280" y="210" fill="#5a2010">Library</text>
	<text class="room-label" x="420" y="210" fill="#5a3010">Main Dining</text>
	<text class="room-label" x="546" y="210" fill="#1a1810">Galley</text>
	<text class="room-label" x="658" y="210" fill="#5a2010">Casino</text>
	<text class="room-label" x="798" y="210" fill="#5a2010">Theater</text>
	<text class="room-label" x="490" y="280" fill="#5a4010">Grand Atrium</text>
	<text class="room-label" x="168" y="350" fill="#5a1010">Infirmary</text>
	<text class="room-label" x="266" y="350" fill="#3a1040">Isolation</text>
	<text class="room-label" x="364" y="350" fill="#1a4d2e">Gym</text>
	<text class="room-label" x="504" y="350" fill="#5a2010">Pool Deck</text>
	<text class="room-label" x="658" y="350" fill="#5a2010">Arcade</text>
	<text class="room-label" x="798" y="350" fill="#5a2010">Kids Club</text>
	<text class="room-label" x="490" y="406" fill="#5a4a30">Starboard Corridor</text>
	<text class="room-label" x="196" y="462" fill="#1a3a4d">Cabins 201-218 (S)</text>
	<text class="room-label" x="364" y="462" fill="#1a3a4d">Cabins 219-236 (S)</text>
	<text class="room-label" x="518" y="462" fill="#1a3a4d">Cabins 237-251 (S)</text>
	<text class="room-label" x="658" y="462" fill="#1a3a4d">Cabins 252-266 (S)</text>
	<text class="room-label" x="798" y="462" fill="#1a3a4d">Owner's Suites (S)</text>
	<text class="room-label" x="490" y="532" fill="#3a1c00">Lifeboat Stations (S)</text>
	<text class="room-label" x="938" y="28" fill="#5a2010">Sun Deck Aft</text>
	<text class="room-label" x="938" y="112" fill="#2a2810">Crew Quarters</text>
	<text class="room-label" x="938" y="210" fill="#1a1810">Crew Mess</text>
	<text class="room-label" x="938" y="280" fill="#f3e6c8">Comms Room</text>
	<text class="room-label" x="938" y="364" fill="#1a1810">Engineering</text>
	<text class="room-label" x="938" y="462" fill="#f3e6c8">Tender Bay</text>
	<text class="room-label" x="938" y="532" fill="#f3e6c8">Helideck</text>
</g>
</svg>